<!-- SVG Placeholder for books when image fails to load -->
<svg width="300" height="450" viewBox="0 0 300 450" fill="none" xmlns="http://www.w3.org/2000/svg">
  <rect width="300" height="450" fill="#1e40af"/>
  <rect x="20" y="40" width="260" height="8" rx="4" fill="white" opacity="0.9"/>
  <rect x="20" y="60" width="200" height="6" rx="3" fill="white" opacity="0.7"/>
  <rect x="20" y="75" width="160" height="6" rx="3" fill="white" opacity="0.7"/>
  
  <rect x="20" y="120" width="260" height="4" rx="2" fill="white" opacity="0.5"/>
  <rect x="20" y="130" width="240" height="4" rx="2" fill="white" opacity="0.5"/>
  <rect x="20" y="140" width="220" height="4" rx="2" fill="white" opacity="0.5"/>
  <rect x="20" y="150" width="260" height="4" rx="2" fill="white" opacity="0.5"/>
  <rect x="20" y="160" width="180" height="4" rx="2" fill="white" opacity="0.5"/>
  
  <rect x="20" y="200" width="260" height="4" rx="2" fill="white" opacity="0.4"/>
  <rect x="20" y="210" width="240" height="4" rx="2" fill="white" opacity="0.4"/>
  <rect x="20" y="220" width="220" height="4" rx="2" fill="white" opacity="0.4"/>
  <rect x="20" y="230" width="260" height="4" rx="2" fill="white" opacity="0.4"/>
  <rect x="20" y="240" width="200" height="4" rx="2" fill="white" opacity="0.4"/>
  
  <rect x="20" y="280" width="260" height="4" rx="2" fill="white" opacity="0.3"/>
  <rect x="20" y="290" width="240" height="4" rx="2" fill="white" opacity="0.3"/>
  <rect x="20" y="300" width="180" height="4" rx="2" fill="white" opacity="0.3"/>
  
  <text x="150" y="380" text-anchor="middle" fill="white" font-family="Arial, sans-serif" font-size="18" font-weight="bold" opacity="0.9">📚</text>
  <text x="150" y="405" text-anchor="middle" fill="white" font-family="Arial, sans-serif" font-size="14" opacity="0.8">Libro</text>
</svg>